<svg xmlns="http://www.w3.org/2000/svg" width="32" height="32" viewBox="0 0 32 32" fill="none">
<path d="M3.34107 0.1875C1.48675 0.1875 0.0117188 1.69053 0.0117188 3.58006V6.97263H3.34107C5.19539 6.97263 6.67042 5.46959 6.67042 3.58006C6.62827 1.69053 5.15325 0.1875 3.34107 0.1875Z" fill="#7F42FF"/>
<path d="M27.1526 6.92966C29.0069 6.92966 30.4819 5.42663 30.4819 3.5371V0.144531H27.1526C25.2983 0.144531 23.8232 1.64757 23.8232 3.5371C23.8232 5.42663 25.3404 6.92966 27.1526 6.92966Z" fill="#7F42FF"/>
<path d="M11.4016 7.78906C9.54729 7.78906 8.07227 9.2921 8.07227 11.1816V27.715C8.07227 29.6045 9.54729 31.1076 11.4016 31.1076C13.2559 31.1076 14.731 29.6045 14.731 27.715V11.1387C14.6888 9.2921 13.2138 7.78906 11.4016 7.78906Z" fill="#482BE7"/>
<path d="M19.1565 7.78906C17.3022 7.78906 15.8271 9.2921 15.8271 11.1816V27.715C15.8271 29.6045 17.3022 31.1076 19.1565 31.1076C21.0108 31.1076 22.4858 29.6045 22.4858 27.715V11.1387C22.4437 9.2921 20.9687 7.78906 19.1565 7.78906Z" fill="#482BE7"/>
<path d="M11.4016 6.97263C13.2404 6.97263 14.731 5.45373 14.731 3.58006C14.731 1.7064 13.2404 0.1875 11.4016 0.1875C9.56287 0.1875 8.07227 1.7064 8.07227 3.58006C8.07227 5.45373 9.56287 6.97263 11.4016 6.97263Z" fill="#482BE7"/>
<path d="M19.1565 6.97263C20.9952 6.97263 22.4858 5.45373 22.4858 3.58006C22.4858 1.7064 20.9952 0.1875 19.1565 0.1875C17.3177 0.1875 15.8271 1.7064 15.8271 3.58006C15.8271 5.45373 17.3177 6.97263 19.1565 6.97263Z" fill="#482BE7"/></svg>